<svg width="25" height="24" viewBox="0 0 25 24" fill="none" xmlns="http://www.w3.org/2000/svg">
    <path d="M17.4532 2.88C17.337 2.76359 17.1991 2.67124 17.0472 2.60822C16.8954 2.5452 16.7326 2.51277 16.5682 2.51277C16.4037 2.51277 16.2409 2.5452 16.0891 2.60822C15.9372 2.67124 15.7993 2.76359 15.6832 2.88L7.27316 11.29C7.18045 11.3825 7.10691 11.4924 7.05672 11.6134C7.00654 11.7343 6.98071 11.864 6.98071 11.995C6.98071 12.126 7.00654 12.2557 7.05672 12.3766C7.10691 12.4976 7.18045 12.6075 7.27316 12.7L15.6832 21.11C16.1732 21.6 16.9632 21.6 17.4532 21.11C17.9432 20.62 17.9432 19.83 17.4532 19.34L10.1132 12L17.4632 4.65C17.9432 4.16 17.9432 3.37 17.4532 2.88Z" fill="#F2F2F2"/>
</svg>
