<svg width="35" height="13" viewBox="0 0 35 13" fill="none" xmlns="http://www.w3.org/2000/svg">
    <path fill-rule="evenodd" clip-rule="evenodd" d="M25.2137 1.16563L24.8137 3.54125C23.6143 2.8622 20.8846 2.70154 20.8846 3.95193C20.8846 4.44879 21.5022 4.79049 22.2466 5.20234C23.3756 5.82694 24.7961 6.61288 24.7961 8.34604C24.7961 11.1152 21.9104 12.133 19.998 12.133C18.0856 12.133 16.8341 11.5081 16.8341 11.5081L17.251 9.02478C18.3983 9.9713 21.8755 10.24 21.8755 8.73926C21.8755 8.10871 21.1911 7.73683 20.3975 7.30558C19.3022 6.71045 17.9989 6.00225 17.9989 4.34515C17.9989 1.30825 21.3019 0.68335 22.6928 0.68335C23.9794 0.68335 25.2137 1.16563 25.2137 1.16563ZM31.9914 11.9423H34.565L32.3211 0.880846H30.0677C29.0273 0.880846 28.7739 1.70517 28.7739 1.70517L24.594 11.9423H27.5155L28.0998 10.2993H31.6628L31.9914 11.9423ZM28.9072 8.02959L30.3799 3.89024L31.2084 8.02959H28.9072ZM12.303 11.9425H15.1058L16.8578 0.881338H14.0547L12.303 11.9425ZM7.27463 8.49003L9.94669 0.882077H12.9632L8.50397 11.9435H5.58367L3.14861 2.33396C1.56795 1.35815 0.216797 1.06937 0.216797 1.06937L0.268631 0.882077H4.68607C5.90159 0.882077 6.01563 1.8783 6.01563 1.8783L6.95873 6.85233L6.95844 6.85174L7.27463 8.49003Z" fill="white"/>
</svg>
